<mxfile host="Electron" modified="2023-04-18T09:52:35.616Z" agent="Mozilla/5.0 (X11; Linux x86_64) AppleWebKit/537.36 (KHTML, like Gecko) draw.io/21.1.2 Chrome/106.0.5249.199 Electron/21.4.3 Safari/537.36" etag="8KHeT1Ig-a6ZUdmFQcvV" version="21.1.2" type="device">
  <diagram id="Yhe4_dBiRpnGmSM2h0tJ" name="Page-1">
    <mxGraphModel dx="1875" dy="2427" grid="1" gridSize="10" guides="1" tooltips="1" connect="1" arrows="1" fold="1" page="1" pageScale="1" pageWidth="827" pageHeight="1169" math="0" shadow="0">
      <root>
        <mxCell id="0" />
        <mxCell id="1" parent="0" />
        <mxCell id="0bNmZjSGsrC72rVKNUDb-1" value="" style="rounded=0;whiteSpace=wrap;html=1;" parent="1" vertex="1">
          <mxGeometry x="400" y="204" width="390" height="380" as="geometry" />
        </mxCell>
        <mxCell id="0bNmZjSGsrC72rVKNUDb-2" value="User score" style="text;html=1;strokeColor=none;fillColor=none;align=center;verticalAlign=middle;whiteSpace=wrap;rounded=0;fontSize=14;" parent="1" vertex="1">
          <mxGeometry x="410" y="229" width="60" height="30" as="geometry" />
        </mxCell>
        <mxCell id="0bNmZjSGsrC72rVKNUDb-3" value="Computer score" style="text;html=1;strokeColor=none;fillColor=none;align=center;verticalAlign=middle;whiteSpace=wrap;rounded=0;fontSize=14;" parent="1" vertex="1">
          <mxGeometry x="700" y="229" width="70" height="30" as="geometry" />
        </mxCell>
        <mxCell id="0bNmZjSGsrC72rVKNUDb-5" value="0" style="text;html=1;strokeColor=none;fillColor=none;align=center;verticalAlign=middle;whiteSpace=wrap;rounded=0;fontSize=14;" parent="1" vertex="1">
          <mxGeometry x="410" y="269" width="60" height="30" as="geometry" />
        </mxCell>
        <mxCell id="0bNmZjSGsrC72rVKNUDb-6" value="0" style="text;html=1;strokeColor=none;fillColor=none;align=center;verticalAlign=middle;whiteSpace=wrap;rounded=0;fontSize=14;" parent="1" vertex="1">
          <mxGeometry x="700" y="269" width="70" height="30" as="geometry" />
        </mxCell>
        <mxCell id="0bNmZjSGsrC72rVKNUDb-36" value="" style="rounded=0;whiteSpace=wrap;html=1;fontSize=14;" parent="1" vertex="1">
          <mxGeometry x="480" y="229" width="200" height="330" as="geometry" />
        </mxCell>
        <mxCell id="0bNmZjSGsrC72rVKNUDb-37" value="" style="shape=collate;whiteSpace=wrap;html=1;fontSize=14;" parent="1" vertex="1">
          <mxGeometry x="625" y="489" width="40" height="40" as="geometry" />
        </mxCell>
        <mxCell id="0bNmZjSGsrC72rVKNUDb-38" value="" style="shape=sortShape;perimeter=rhombusPerimeter;whiteSpace=wrap;html=1;fontSize=14;" parent="1" vertex="1">
          <mxGeometry x="620" y="429" width="50" height="45" as="geometry" />
        </mxCell>
        <mxCell id="0bNmZjSGsrC72rVKNUDb-39" value="" style="shape=lineEllipse;line=vertical;perimeter=ellipsePerimeter;whiteSpace=wrap;html=1;backgroundOutline=1;fontSize=14;" parent="1" vertex="1">
          <mxGeometry x="625" y="379" width="40" height="40" as="geometry" />
        </mxCell>
        <mxCell id="0bNmZjSGsrC72rVKNUDb-40" value="" style="shape=switch;whiteSpace=wrap;html=1;fontSize=14;" parent="1" vertex="1">
          <mxGeometry x="625" y="259" width="40" height="40" as="geometry" />
        </mxCell>
        <mxCell id="0bNmZjSGsrC72rVKNUDb-41" value="" style="verticalLabelPosition=bottom;verticalAlign=top;html=1;shape=mxgraph.basic.6_point_star;fontSize=14;" parent="1" vertex="1">
          <mxGeometry x="620" y="319" width="50" height="40" as="geometry" />
        </mxCell>
        <mxCell id="0bNmZjSGsrC72rVKNUDb-45" value="" style="shape=collate;whiteSpace=wrap;html=1;fontSize=14;" parent="1" vertex="1">
          <mxGeometry x="495" y="489" width="40" height="40" as="geometry" />
        </mxCell>
        <mxCell id="0bNmZjSGsrC72rVKNUDb-46" value="" style="shape=sortShape;perimeter=rhombusPerimeter;whiteSpace=wrap;html=1;fontSize=14;" parent="1" vertex="1">
          <mxGeometry x="490" y="429" width="50" height="45" as="geometry" />
        </mxCell>
        <mxCell id="0bNmZjSGsrC72rVKNUDb-47" value="" style="shape=lineEllipse;line=vertical;perimeter=ellipsePerimeter;whiteSpace=wrap;html=1;backgroundOutline=1;fontSize=14;" parent="1" vertex="1">
          <mxGeometry x="495" y="379" width="40" height="40" as="geometry" />
        </mxCell>
        <mxCell id="0bNmZjSGsrC72rVKNUDb-49" value="" style="verticalLabelPosition=bottom;verticalAlign=top;html=1;shape=mxgraph.basic.6_point_star;fontSize=14;" parent="1" vertex="1">
          <mxGeometry x="490" y="319" width="50" height="40" as="geometry" />
        </mxCell>
        <mxCell id="0bNmZjSGsrC72rVKNUDb-50" value="Components" style="text;html=1;strokeColor=none;fillColor=none;align=center;verticalAlign=middle;whiteSpace=wrap;rounded=0;fontSize=24;" parent="1" vertex="1">
          <mxGeometry x="140" y="120" width="140" height="30" as="geometry" />
        </mxCell>
        <mxCell id="0bNmZjSGsrC72rVKNUDb-56" value="" style="rounded=0;whiteSpace=wrap;html=1;" parent="1" vertex="1">
          <mxGeometry x="140" y="204" width="90" height="120" as="geometry" />
        </mxCell>
        <mxCell id="0bNmZjSGsrC72rVKNUDb-62" value="User score" style="text;html=1;strokeColor=none;fillColor=none;align=center;verticalAlign=middle;whiteSpace=wrap;rounded=0;fontSize=14;" parent="1" vertex="1">
          <mxGeometry x="150" y="224" width="60" height="30" as="geometry" />
        </mxCell>
        <mxCell id="0bNmZjSGsrC72rVKNUDb-63" value="0" style="text;html=1;strokeColor=none;fillColor=none;align=center;verticalAlign=middle;whiteSpace=wrap;rounded=0;fontSize=14;" parent="1" vertex="1">
          <mxGeometry x="150" y="264" width="60" height="30" as="geometry" />
        </mxCell>
        <mxCell id="0bNmZjSGsrC72rVKNUDb-64" value="Game table" style="text;html=1;strokeColor=none;fillColor=none;align=center;verticalAlign=middle;whiteSpace=wrap;rounded=0;fontSize=16;" parent="1" vertex="1">
          <mxGeometry x="400" y="164" width="90" height="30" as="geometry" />
        </mxCell>
        <mxCell id="0bNmZjSGsrC72rVKNUDb-65" value="Player card" style="text;html=1;strokeColor=none;fillColor=none;align=center;verticalAlign=middle;whiteSpace=wrap;rounded=0;fontSize=16;" parent="1" vertex="1">
          <mxGeometry x="140" y="164" width="90" height="30" as="geometry" />
        </mxCell>
        <mxCell id="0bNmZjSGsrC72rVKNUDb-66" value="Game card" style="text;html=1;strokeColor=none;fillColor=none;align=center;verticalAlign=middle;whiteSpace=wrap;rounded=0;fontSize=16;" parent="1" vertex="1">
          <mxGeometry x="270" y="164" width="90" height="30" as="geometry" />
        </mxCell>
        <mxCell id="0bNmZjSGsrC72rVKNUDb-67" value="" style="rounded=0;whiteSpace=wrap;html=1;" parent="1" vertex="1">
          <mxGeometry x="270" y="204" width="90" height="120" as="geometry" />
        </mxCell>
        <mxCell id="0bNmZjSGsrC72rVKNUDb-70" value="" style="shape=switch;whiteSpace=wrap;html=1;fontSize=14;" parent="1" vertex="1">
          <mxGeometry x="495" y="259" width="40" height="40" as="geometry" />
        </mxCell>
        <mxCell id="0bNmZjSGsrC72rVKNUDb-71" value="" style="shape=switch;whiteSpace=wrap;html=1;fontSize=14;" parent="1" vertex="1">
          <mxGeometry x="295" y="234" width="40" height="40" as="geometry" />
        </mxCell>
        <mxCell id="cxl0kjxxXBH_ArZUtwH2-2" value="Score list" style="text;html=1;strokeColor=none;fillColor=none;align=center;verticalAlign=middle;whiteSpace=wrap;rounded=0;fontSize=16;" parent="1" vertex="1">
          <mxGeometry x="1100" y="164" width="90" height="30" as="geometry" />
        </mxCell>
        <mxCell id="cxl0kjxxXBH_ArZUtwH2-21" value="" style="rounded=0;whiteSpace=wrap;html=1;" parent="1" vertex="1">
          <mxGeometry x="1100" y="204" width="253" height="380" as="geometry" />
        </mxCell>
        <mxCell id="cxl0kjxxXBH_ArZUtwH2-22" value="" style="rounded=0;whiteSpace=wrap;html=1;" parent="1" vertex="1">
          <mxGeometry x="1110" y="214" width="233" height="30" as="geometry" />
        </mxCell>
        <mxCell id="cxl0kjxxXBH_ArZUtwH2-23" value="PVC" style="text;html=1;strokeColor=none;fillColor=none;align=center;verticalAlign=middle;whiteSpace=wrap;rounded=0;" parent="1" vertex="1">
          <mxGeometry x="1110" y="214" width="60" height="30" as="geometry" />
        </mxCell>
        <mxCell id="cxl0kjxxXBH_ArZUtwH2-25" value="" style="endArrow=none;html=1;rounded=0;entryX=0.25;entryY=0;entryDx=0;entryDy=0;exitX=0.25;exitY=1;exitDx=0;exitDy=0;" parent="1" source="cxl0kjxxXBH_ArZUtwH2-22" target="cxl0kjxxXBH_ArZUtwH2-22" edge="1">
          <mxGeometry width="50" height="50" relative="1" as="geometry">
            <mxPoint x="1170" y="274" as="sourcePoint" />
            <mxPoint x="1200" y="224" as="targetPoint" />
          </mxGeometry>
        </mxCell>
        <mxCell id="cxl0kjxxXBH_ArZUtwH2-27" value="Computer won" style="text;html=1;strokeColor=none;fillColor=none;align=center;verticalAlign=middle;whiteSpace=wrap;rounded=0;" parent="1" vertex="1">
          <mxGeometry x="1203" y="214" width="100" height="30" as="geometry" />
        </mxCell>
        <mxCell id="cxl0kjxxXBH_ArZUtwH2-28" value="" style="rounded=0;whiteSpace=wrap;html=1;" parent="1" vertex="1">
          <mxGeometry x="1110" y="254" width="233" height="30" as="geometry" />
        </mxCell>
        <mxCell id="cxl0kjxxXBH_ArZUtwH2-29" value="PVC" style="text;html=1;strokeColor=none;fillColor=none;align=center;verticalAlign=middle;whiteSpace=wrap;rounded=0;" parent="1" vertex="1">
          <mxGeometry x="1110" y="254" width="60" height="30" as="geometry" />
        </mxCell>
        <mxCell id="cxl0kjxxXBH_ArZUtwH2-30" value="" style="endArrow=none;html=1;rounded=0;entryX=0.25;entryY=0;entryDx=0;entryDy=0;exitX=0.25;exitY=1;exitDx=0;exitDy=0;" parent="1" source="cxl0kjxxXBH_ArZUtwH2-28" target="cxl0kjxxXBH_ArZUtwH2-28" edge="1">
          <mxGeometry width="50" height="50" relative="1" as="geometry">
            <mxPoint x="1170" y="314" as="sourcePoint" />
            <mxPoint x="1200" y="264" as="targetPoint" />
          </mxGeometry>
        </mxCell>
        <mxCell id="cxl0kjxxXBH_ArZUtwH2-31" value="Person won" style="text;html=1;strokeColor=none;fillColor=none;align=center;verticalAlign=middle;whiteSpace=wrap;rounded=0;" parent="1" vertex="1">
          <mxGeometry x="1203" y="254" width="100" height="30" as="geometry" />
        </mxCell>
        <mxCell id="cxl0kjxxXBH_ArZUtwH2-32" value="" style="rounded=0;whiteSpace=wrap;html=1;" parent="1" vertex="1">
          <mxGeometry x="1110" y="294" width="233" height="30" as="geometry" />
        </mxCell>
        <mxCell id="cxl0kjxxXBH_ArZUtwH2-33" value="PVP" style="text;html=1;strokeColor=none;fillColor=none;align=center;verticalAlign=middle;whiteSpace=wrap;rounded=0;" parent="1" vertex="1">
          <mxGeometry x="1110" y="294" width="60" height="30" as="geometry" />
        </mxCell>
        <mxCell id="cxl0kjxxXBH_ArZUtwH2-34" value="" style="endArrow=none;html=1;rounded=0;entryX=0.25;entryY=0;entryDx=0;entryDy=0;exitX=0.25;exitY=1;exitDx=0;exitDy=0;" parent="1" source="cxl0kjxxXBH_ArZUtwH2-32" target="cxl0kjxxXBH_ArZUtwH2-32" edge="1">
          <mxGeometry width="50" height="50" relative="1" as="geometry">
            <mxPoint x="1170" y="354" as="sourcePoint" />
            <mxPoint x="1200" y="304" as="targetPoint" />
          </mxGeometry>
        </mxCell>
        <mxCell id="cxl0kjxxXBH_ArZUtwH2-35" value="Person 1 won" style="text;html=1;strokeColor=none;fillColor=none;align=center;verticalAlign=middle;whiteSpace=wrap;rounded=0;" parent="1" vertex="1">
          <mxGeometry x="1203" y="294" width="100" height="30" as="geometry" />
        </mxCell>
        <mxCell id="cxl0kjxxXBH_ArZUtwH2-36" value="" style="rounded=0;whiteSpace=wrap;html=1;" parent="1" vertex="1">
          <mxGeometry x="1110" y="334" width="233" height="30" as="geometry" />
        </mxCell>
        <mxCell id="cxl0kjxxXBH_ArZUtwH2-37" value="PVP" style="text;html=1;strokeColor=none;fillColor=none;align=center;verticalAlign=middle;whiteSpace=wrap;rounded=0;" parent="1" vertex="1">
          <mxGeometry x="1110" y="334" width="60" height="30" as="geometry" />
        </mxCell>
        <mxCell id="cxl0kjxxXBH_ArZUtwH2-38" value="" style="endArrow=none;html=1;rounded=0;entryX=0.25;entryY=0;entryDx=0;entryDy=0;exitX=0.25;exitY=1;exitDx=0;exitDy=0;" parent="1" source="cxl0kjxxXBH_ArZUtwH2-36" target="cxl0kjxxXBH_ArZUtwH2-36" edge="1">
          <mxGeometry width="50" height="50" relative="1" as="geometry">
            <mxPoint x="1170" y="394" as="sourcePoint" />
            <mxPoint x="1200" y="344" as="targetPoint" />
          </mxGeometry>
        </mxCell>
        <mxCell id="cxl0kjxxXBH_ArZUtwH2-39" value="Person 2&amp;nbsp;won" style="text;html=1;strokeColor=none;fillColor=none;align=center;verticalAlign=middle;whiteSpace=wrap;rounded=0;" parent="1" vertex="1">
          <mxGeometry x="1203" y="334" width="100" height="30" as="geometry" />
        </mxCell>
        <mxCell id="cxl0kjxxXBH_ArZUtwH2-40" value="Score card" style="text;html=1;strokeColor=none;fillColor=none;align=center;verticalAlign=middle;whiteSpace=wrap;rounded=0;fontSize=16;" parent="1" vertex="1">
          <mxGeometry x="827" y="164" width="90" height="30" as="geometry" />
        </mxCell>
        <mxCell id="cxl0kjxxXBH_ArZUtwH2-41" value="" style="rounded=0;whiteSpace=wrap;html=1;" parent="1" vertex="1">
          <mxGeometry x="827" y="204" width="243" height="30" as="geometry" />
        </mxCell>
        <mxCell id="cxl0kjxxXBH_ArZUtwH2-42" value="PVC" style="text;html=1;strokeColor=none;fillColor=none;align=center;verticalAlign=middle;whiteSpace=wrap;rounded=0;" parent="1" vertex="1">
          <mxGeometry x="827" y="204" width="60" height="30" as="geometry" />
        </mxCell>
        <mxCell id="cxl0kjxxXBH_ArZUtwH2-43" value="" style="endArrow=none;html=1;rounded=0;entryX=0.25;entryY=0;entryDx=0;entryDy=0;exitX=0.25;exitY=1;exitDx=0;exitDy=0;" parent="1" source="cxl0kjxxXBH_ArZUtwH2-41" target="cxl0kjxxXBH_ArZUtwH2-41" edge="1">
          <mxGeometry width="50" height="50" relative="1" as="geometry">
            <mxPoint x="887" y="264" as="sourcePoint" />
            <mxPoint x="917" y="214" as="targetPoint" />
          </mxGeometry>
        </mxCell>
        <mxCell id="cxl0kjxxXBH_ArZUtwH2-44" value="Computer won" style="text;html=1;strokeColor=none;fillColor=none;align=center;verticalAlign=middle;whiteSpace=wrap;rounded=0;" parent="1" vertex="1">
          <mxGeometry x="920" y="204" width="100" height="30" as="geometry" />
        </mxCell>
        <mxCell id="cxl0kjxxXBH_ArZUtwH2-80" value="" style="rounded=0;whiteSpace=wrap;html=1;" parent="1" vertex="1">
          <mxGeometry x="4080" y="800" width="1240" height="700" as="geometry" />
        </mxCell>
        <mxCell id="cxl0kjxxXBH_ArZUtwH2-81" value="" style="rounded=0;whiteSpace=wrap;html=1;" parent="1" vertex="1">
          <mxGeometry x="4390" y="1000" width="390" height="380" as="geometry" />
        </mxCell>
        <mxCell id="cxl0kjxxXBH_ArZUtwH2-82" value="User score" style="text;html=1;strokeColor=none;fillColor=none;align=center;verticalAlign=middle;whiteSpace=wrap;rounded=0;fontSize=14;" parent="1" vertex="1">
          <mxGeometry x="4400" y="1025" width="60" height="30" as="geometry" />
        </mxCell>
        <mxCell id="cxl0kjxxXBH_ArZUtwH2-83" value="Computer score" style="text;html=1;strokeColor=none;fillColor=none;align=center;verticalAlign=middle;whiteSpace=wrap;rounded=0;fontSize=14;" parent="1" vertex="1">
          <mxGeometry x="4690" y="1025" width="70" height="30" as="geometry" />
        </mxCell>
        <mxCell id="cxl0kjxxXBH_ArZUtwH2-84" value="0" style="text;html=1;strokeColor=none;fillColor=none;align=center;verticalAlign=middle;whiteSpace=wrap;rounded=0;fontSize=14;" parent="1" vertex="1">
          <mxGeometry x="4400" y="1065" width="60" height="30" as="geometry" />
        </mxCell>
        <mxCell id="cxl0kjxxXBH_ArZUtwH2-85" value="0" style="text;html=1;strokeColor=none;fillColor=none;align=center;verticalAlign=middle;whiteSpace=wrap;rounded=0;fontSize=14;" parent="1" vertex="1">
          <mxGeometry x="4690" y="1065" width="70" height="30" as="geometry" />
        </mxCell>
        <mxCell id="cxl0kjxxXBH_ArZUtwH2-86" value="" style="rounded=0;whiteSpace=wrap;html=1;fontSize=14;" parent="1" vertex="1">
          <mxGeometry x="4470" y="1025" width="200" height="330" as="geometry" />
        </mxCell>
        <mxCell id="cxl0kjxxXBH_ArZUtwH2-87" value="" style="shape=collate;whiteSpace=wrap;html=1;fontSize=14;" parent="1" vertex="1">
          <mxGeometry x="4615" y="1285" width="40" height="40" as="geometry" />
        </mxCell>
        <mxCell id="cxl0kjxxXBH_ArZUtwH2-88" value="" style="shape=sortShape;perimeter=rhombusPerimeter;whiteSpace=wrap;html=1;fontSize=14;" parent="1" vertex="1">
          <mxGeometry x="4610" y="1225" width="50" height="45" as="geometry" />
        </mxCell>
        <mxCell id="cxl0kjxxXBH_ArZUtwH2-89" value="" style="shape=lineEllipse;line=vertical;perimeter=ellipsePerimeter;whiteSpace=wrap;html=1;backgroundOutline=1;fontSize=14;" parent="1" vertex="1">
          <mxGeometry x="4615" y="1175" width="40" height="40" as="geometry" />
        </mxCell>
        <mxCell id="cxl0kjxxXBH_ArZUtwH2-90" value="" style="shape=switch;whiteSpace=wrap;html=1;fontSize=14;" parent="1" vertex="1">
          <mxGeometry x="4615" y="1055" width="40" height="40" as="geometry" />
        </mxCell>
        <mxCell id="cxl0kjxxXBH_ArZUtwH2-91" value="" style="verticalLabelPosition=bottom;verticalAlign=top;html=1;shape=mxgraph.basic.6_point_star;fontSize=14;" parent="1" vertex="1">
          <mxGeometry x="4610" y="1115" width="50" height="40" as="geometry" />
        </mxCell>
        <mxCell id="cxl0kjxxXBH_ArZUtwH2-92" value="" style="shape=collate;whiteSpace=wrap;html=1;fontSize=14;" parent="1" vertex="1">
          <mxGeometry x="4485" y="1285" width="40" height="40" as="geometry" />
        </mxCell>
        <mxCell id="cxl0kjxxXBH_ArZUtwH2-93" value="" style="shape=sortShape;perimeter=rhombusPerimeter;whiteSpace=wrap;html=1;fontSize=14;" parent="1" vertex="1">
          <mxGeometry x="4480" y="1225" width="50" height="45" as="geometry" />
        </mxCell>
        <mxCell id="cxl0kjxxXBH_ArZUtwH2-94" value="" style="shape=lineEllipse;line=vertical;perimeter=ellipsePerimeter;whiteSpace=wrap;html=1;backgroundOutline=1;fontSize=14;" parent="1" vertex="1">
          <mxGeometry x="4485" y="1175" width="40" height="40" as="geometry" />
        </mxCell>
        <mxCell id="cxl0kjxxXBH_ArZUtwH2-95" value="" style="verticalLabelPosition=bottom;verticalAlign=top;html=1;shape=mxgraph.basic.6_point_star;fontSize=14;" parent="1" vertex="1">
          <mxGeometry x="4480" y="1115" width="50" height="40" as="geometry" />
        </mxCell>
        <mxCell id="cxl0kjxxXBH_ArZUtwH2-96" value="" style="shape=switch;whiteSpace=wrap;html=1;fontSize=14;" parent="1" vertex="1">
          <mxGeometry x="4485" y="1055" width="40" height="40" as="geometry" />
        </mxCell>
        <mxCell id="cxl0kjxxXBH_ArZUtwH2-97" value="" style="rounded=0;whiteSpace=wrap;html=1;" parent="1" vertex="1">
          <mxGeometry x="5054" y="860" width="266" height="640" as="geometry" />
        </mxCell>
        <mxCell id="cxl0kjxxXBH_ArZUtwH2-98" value="" style="rounded=0;whiteSpace=wrap;html=1;" parent="1" vertex="1">
          <mxGeometry x="5064" y="870" width="246" height="30" as="geometry" />
        </mxCell>
        <mxCell id="cxl0kjxxXBH_ArZUtwH2-99" value="PVC" style="text;html=1;strokeColor=none;fillColor=none;align=center;verticalAlign=middle;whiteSpace=wrap;rounded=0;" parent="1" vertex="1">
          <mxGeometry x="5064" y="870" width="60" height="30" as="geometry" />
        </mxCell>
        <mxCell id="cxl0kjxxXBH_ArZUtwH2-100" value="" style="endArrow=none;html=1;rounded=0;entryX=0.25;entryY=0;entryDx=0;entryDy=0;exitX=0.25;exitY=1;exitDx=0;exitDy=0;" parent="1" source="cxl0kjxxXBH_ArZUtwH2-98" target="cxl0kjxxXBH_ArZUtwH2-98" edge="1">
          <mxGeometry width="50" height="50" relative="1" as="geometry">
            <mxPoint x="5124" y="930" as="sourcePoint" />
            <mxPoint x="5154" y="880" as="targetPoint" />
          </mxGeometry>
        </mxCell>
        <mxCell id="cxl0kjxxXBH_ArZUtwH2-101" value="Computer won" style="text;html=1;strokeColor=none;fillColor=none;align=center;verticalAlign=middle;whiteSpace=wrap;rounded=0;" parent="1" vertex="1">
          <mxGeometry x="5157" y="870" width="100" height="30" as="geometry" />
        </mxCell>
        <mxCell id="cxl0kjxxXBH_ArZUtwH2-102" value="" style="rounded=0;whiteSpace=wrap;html=1;" parent="1" vertex="1">
          <mxGeometry x="5064" y="910" width="246" height="30" as="geometry" />
        </mxCell>
        <mxCell id="cxl0kjxxXBH_ArZUtwH2-103" value="PVC" style="text;html=1;strokeColor=none;fillColor=none;align=center;verticalAlign=middle;whiteSpace=wrap;rounded=0;" parent="1" vertex="1">
          <mxGeometry x="5064" y="910" width="60" height="30" as="geometry" />
        </mxCell>
        <mxCell id="cxl0kjxxXBH_ArZUtwH2-104" value="" style="endArrow=none;html=1;rounded=0;entryX=0.25;entryY=0;entryDx=0;entryDy=0;exitX=0.25;exitY=1;exitDx=0;exitDy=0;" parent="1" source="cxl0kjxxXBH_ArZUtwH2-102" target="cxl0kjxxXBH_ArZUtwH2-102" edge="1">
          <mxGeometry width="50" height="50" relative="1" as="geometry">
            <mxPoint x="5124" y="970" as="sourcePoint" />
            <mxPoint x="5154" y="920" as="targetPoint" />
          </mxGeometry>
        </mxCell>
        <mxCell id="cxl0kjxxXBH_ArZUtwH2-105" value="Person won" style="text;html=1;strokeColor=none;fillColor=none;align=center;verticalAlign=middle;whiteSpace=wrap;rounded=0;" parent="1" vertex="1">
          <mxGeometry x="5157" y="910" width="100" height="30" as="geometry" />
        </mxCell>
        <mxCell id="cxl0kjxxXBH_ArZUtwH2-106" value="" style="rounded=0;whiteSpace=wrap;html=1;" parent="1" vertex="1">
          <mxGeometry x="5064" y="950" width="246" height="30" as="geometry" />
        </mxCell>
        <mxCell id="cxl0kjxxXBH_ArZUtwH2-107" value="PVP" style="text;html=1;strokeColor=none;fillColor=none;align=center;verticalAlign=middle;whiteSpace=wrap;rounded=0;" parent="1" vertex="1">
          <mxGeometry x="5064" y="950" width="60" height="30" as="geometry" />
        </mxCell>
        <mxCell id="cxl0kjxxXBH_ArZUtwH2-108" value="" style="endArrow=none;html=1;rounded=0;entryX=0.25;entryY=0;entryDx=0;entryDy=0;exitX=0.25;exitY=1;exitDx=0;exitDy=0;" parent="1" source="cxl0kjxxXBH_ArZUtwH2-106" target="cxl0kjxxXBH_ArZUtwH2-106" edge="1">
          <mxGeometry width="50" height="50" relative="1" as="geometry">
            <mxPoint x="5124" y="1010" as="sourcePoint" />
            <mxPoint x="5154" y="960" as="targetPoint" />
          </mxGeometry>
        </mxCell>
        <mxCell id="cxl0kjxxXBH_ArZUtwH2-109" value="Person 1 won" style="text;html=1;strokeColor=none;fillColor=none;align=center;verticalAlign=middle;whiteSpace=wrap;rounded=0;" parent="1" vertex="1">
          <mxGeometry x="5157" y="950" width="100" height="30" as="geometry" />
        </mxCell>
        <mxCell id="cxl0kjxxXBH_ArZUtwH2-110" value="" style="rounded=0;whiteSpace=wrap;html=1;" parent="1" vertex="1">
          <mxGeometry x="5064" y="990" width="246" height="30" as="geometry" />
        </mxCell>
        <mxCell id="cxl0kjxxXBH_ArZUtwH2-111" value="PVP" style="text;html=1;strokeColor=none;fillColor=none;align=center;verticalAlign=middle;whiteSpace=wrap;rounded=0;" parent="1" vertex="1">
          <mxGeometry x="5064" y="990" width="60" height="30" as="geometry" />
        </mxCell>
        <mxCell id="cxl0kjxxXBH_ArZUtwH2-112" value="" style="endArrow=none;html=1;rounded=0;entryX=0.25;entryY=0;entryDx=0;entryDy=0;exitX=0.25;exitY=1;exitDx=0;exitDy=0;" parent="1" source="cxl0kjxxXBH_ArZUtwH2-110" target="cxl0kjxxXBH_ArZUtwH2-110" edge="1">
          <mxGeometry width="50" height="50" relative="1" as="geometry">
            <mxPoint x="5124" y="1050" as="sourcePoint" />
            <mxPoint x="5154" y="1000" as="targetPoint" />
          </mxGeometry>
        </mxCell>
        <mxCell id="cxl0kjxxXBH_ArZUtwH2-113" value="Person 2&amp;nbsp;won" style="text;html=1;strokeColor=none;fillColor=none;align=center;verticalAlign=middle;whiteSpace=wrap;rounded=0;" parent="1" vertex="1">
          <mxGeometry x="5157" y="990" width="100" height="30" as="geometry" />
        </mxCell>
        <mxCell id="cxl0kjxxXBH_ArZUtwH2-114" value="" style="rounded=0;whiteSpace=wrap;html=1;" parent="1" vertex="1">
          <mxGeometry x="4080" y="800" width="1240" height="60" as="geometry" />
        </mxCell>
        <mxCell id="cxl0kjxxXBH_ArZUtwH2-115" value="" style="ellipse;whiteSpace=wrap;html=1;strokeWidth=2;fillWeight=2;hachureGap=8;fillColor=#990000;fillStyle=dots;sketch=1;" parent="1" vertex="1">
          <mxGeometry x="4090" y="812.5" width="40" height="35" as="geometry" />
        </mxCell>
        <mxCell id="cxl0kjxxXBH_ArZUtwH2-119" value="Game" style="text;html=1;strokeColor=none;fillColor=none;align=center;verticalAlign=middle;whiteSpace=wrap;rounded=0;fontSize=24;" parent="1" vertex="1">
          <mxGeometry x="4633.75" y="815" width="152.5" height="30" as="geometry" />
        </mxCell>
        <mxCell id="cxl0kjxxXBH_ArZUtwH2-122" value="" style="rounded=0;whiteSpace=wrap;html=1;" parent="1" vertex="1">
          <mxGeometry x="5360" y="800" width="1230" height="700" as="geometry" />
        </mxCell>
        <mxCell id="cxl0kjxxXBH_ArZUtwH2-156" value="" style="rounded=0;whiteSpace=wrap;html=1;" parent="1" vertex="1">
          <mxGeometry x="5360" y="800" width="1230" height="60" as="geometry" />
        </mxCell>
        <mxCell id="cxl0kjxxXBH_ArZUtwH2-157" value="" style="ellipse;whiteSpace=wrap;html=1;strokeWidth=2;fillWeight=2;hachureGap=8;fillColor=#990000;fillStyle=dots;sketch=1;" parent="1" vertex="1">
          <mxGeometry x="5370" y="812.5" width="40" height="35" as="geometry" />
        </mxCell>
        <mxCell id="cxl0kjxxXBH_ArZUtwH2-158" value="About" style="text;html=1;strokeColor=none;fillColor=none;align=center;verticalAlign=middle;whiteSpace=wrap;rounded=0;fontSize=24;" parent="1" vertex="1">
          <mxGeometry x="5913.75" y="815" width="152.5" height="30" as="geometry" />
        </mxCell>
        <mxCell id="cxl0kjxxXBH_ArZUtwH2-162" value="&lt;meta charset=&quot;utf-8&quot;&gt;&lt;b id=&quot;docs-internal-guid-2ac57503-7fff-f6e9-b4ce-fe7399920512&quot; style=&quot;font-weight:normal;&quot;&gt;&lt;span style=&quot;border:none;display:inline-block;overflow:hidden;width:392px;height:395px;&quot;&gt;&lt;img style=&quot;margin-left:0px;margin-top:0px;&quot; height=&quot;395&quot; width=&quot;392&quot; src=&quot;https://lh4.googleusercontent.com/ucB3--M_30yGmEJfpCYrcSXI10EfaZs7s7QzJCr9ZlQcQEuOCeqfJs1aZdH_60KvUX0px6kwdvN_eWKWVX5hDx8XnCVTqWFpMG9bXi8JX_VUq0w6X02LqLYFUOr1EMrZA6esCNFl2YM-uINndnB2cv4&quot;&gt;&lt;/span&gt;&lt;/b&gt;" style="text;whiteSpace=wrap;html=1;fontSize=24;" parent="1" vertex="1">
          <mxGeometry x="6140" y="894" width="430" height="430" as="geometry" />
        </mxCell>
        <mxCell id="cxl0kjxxXBH_ArZUtwH2-163" value="" style="rounded=0;whiteSpace=wrap;html=1;fontSize=24;" parent="1" vertex="1">
          <mxGeometry x="5390" y="893" width="720" height="407" as="geometry" />
        </mxCell>
        <mxCell id="cxl0kjxxXBH_ArZUtwH2-165" value="Game description&lt;br&gt;.....&lt;br&gt;Game rules&lt;br&gt;.....&lt;br&gt;How to play&lt;br&gt;....." style="text;html=1;strokeColor=none;fillColor=none;align=left;verticalAlign=top;whiteSpace=wrap;rounded=0;fontSize=24;" parent="1" vertex="1">
          <mxGeometry x="5410" y="910" width="540" height="320" as="geometry" />
        </mxCell>
        <mxCell id="47OpDiA0oA8PgdaGgZOF-1" value="" style="rounded=0;whiteSpace=wrap;html=1;" parent="1" vertex="1">
          <mxGeometry x="149" y="-560" width="671" height="120" as="geometry" />
        </mxCell>
        <mxCell id="47OpDiA0oA8PgdaGgZOF-2" value="Rock - Paper - Spok - Lizard - Scisors&amp;nbsp;" style="text;html=1;strokeColor=none;fillColor=none;align=center;verticalAlign=middle;whiteSpace=wrap;rounded=0;fontSize=34;" parent="1" vertex="1">
          <mxGeometry x="174.5" y="-542.5" width="620" height="85" as="geometry" />
        </mxCell>
        <mxCell id="47OpDiA0oA8PgdaGgZOF-55" value="Start / Stop game" style="rounded=0;whiteSpace=wrap;html=1;fontSize=16;" parent="1" vertex="1">
          <mxGeometry x="4457.5" y="900" width="225" height="25" as="geometry" />
        </mxCell>
        <mxCell id="47OpDiA0oA8PgdaGgZOF-56" value="Reset score" style="rounded=0;whiteSpace=wrap;html=1;fontSize=16;" parent="1" vertex="1">
          <mxGeometry x="4457.5" y="940" width="225" height="25" as="geometry" />
        </mxCell>
        <mxCell id="47OpDiA0oA8PgdaGgZOF-98" value="Pages" style="text;html=1;strokeColor=none;fillColor=none;align=center;verticalAlign=middle;whiteSpace=wrap;rounded=0;fontSize=24;" parent="1" vertex="1">
          <mxGeometry x="140" y="720" width="110" height="30" as="geometry" />
        </mxCell>
        <mxCell id="47OpDiA0oA8PgdaGgZOF-100" value="" style="rounded=0;whiteSpace=wrap;html=1;" parent="1" vertex="1">
          <mxGeometry x="1400" y="199" width="610" height="330" as="geometry" />
        </mxCell>
        <mxCell id="47OpDiA0oA8PgdaGgZOF-101" value="" style="rounded=0;whiteSpace=wrap;html=1;" parent="1" vertex="1">
          <mxGeometry x="1400" y="199" width="610" height="60" as="geometry" />
        </mxCell>
        <mxCell id="47OpDiA0oA8PgdaGgZOF-102" value="" style="ellipse;whiteSpace=wrap;html=1;strokeWidth=2;fillWeight=2;hachureGap=8;fillColor=#990000;fillStyle=dots;sketch=1;" parent="1" vertex="1">
          <mxGeometry x="1410" y="211.5" width="40" height="35" as="geometry" />
        </mxCell>
        <mxCell id="47OpDiA0oA8PgdaGgZOF-103" value="Page name" style="text;html=1;strokeColor=none;fillColor=none;align=center;verticalAlign=middle;whiteSpace=wrap;rounded=0;fontSize=24;" parent="1" vertex="1">
          <mxGeometry x="1635" y="214" width="140" height="30" as="geometry" />
        </mxCell>
        <mxCell id="47OpDiA0oA8PgdaGgZOF-105" value="Page layout" style="text;html=1;strokeColor=none;fillColor=none;align=center;verticalAlign=middle;whiteSpace=wrap;rounded=0;fontSize=16;" parent="1" vertex="1">
          <mxGeometry x="1400" y="150" width="90" height="30" as="geometry" />
        </mxCell>
        <mxCell id="47OpDiA0oA8PgdaGgZOF-106" value="" style="rounded=0;whiteSpace=wrap;html=1;" parent="1" vertex="1">
          <mxGeometry x="1520" y="800" width="1240" height="700" as="geometry" />
        </mxCell>
        <mxCell id="47OpDiA0oA8PgdaGgZOF-107" value="" style="rounded=0;whiteSpace=wrap;html=1;" parent="1" vertex="1">
          <mxGeometry x="1520" y="800" width="1240" height="60" as="geometry" />
        </mxCell>
        <mxCell id="47OpDiA0oA8PgdaGgZOF-108" value="" style="ellipse;whiteSpace=wrap;html=1;strokeWidth=2;fillWeight=2;hachureGap=8;fillColor=#990000;fillStyle=dots;sketch=1;" parent="1" vertex="1">
          <mxGeometry x="1530" y="812.5" width="40" height="35" as="geometry" />
        </mxCell>
        <mxCell id="47OpDiA0oA8PgdaGgZOF-109" value="Login modal" style="text;html=1;strokeColor=none;fillColor=none;align=center;verticalAlign=middle;whiteSpace=wrap;rounded=0;fontSize=24;" parent="1" vertex="1">
          <mxGeometry x="2065" y="815" width="165" height="30" as="geometry" />
        </mxCell>
        <mxCell id="47OpDiA0oA8PgdaGgZOF-110" value="" style="rounded=0;whiteSpace=wrap;html=1;" parent="1" vertex="1">
          <mxGeometry x="1895" y="930" width="480" height="260" as="geometry" />
        </mxCell>
        <mxCell id="47OpDiA0oA8PgdaGgZOF-111" value="Please enter your name" style="text;html=1;strokeColor=none;fillColor=none;align=center;verticalAlign=middle;whiteSpace=wrap;rounded=0;fontSize=16;" parent="1" vertex="1">
          <mxGeometry x="2035" y="975" width="200" height="30" as="geometry" />
        </mxCell>
        <mxCell id="47OpDiA0oA8PgdaGgZOF-112" value="Placeholder" style="rounded=0;whiteSpace=wrap;html=1;fontSize=16;" parent="1" vertex="1">
          <mxGeometry x="2012.5" y="1045" width="245" height="25" as="geometry" />
        </mxCell>
        <mxCell id="47OpDiA0oA8PgdaGgZOF-113" value="Register" style="rounded=1;whiteSpace=wrap;html=1;fontSize=16;" parent="1" vertex="1">
          <mxGeometry x="2075" y="1110" width="120" height="20" as="geometry" />
        </mxCell>
        <mxCell id="47OpDiA0oA8PgdaGgZOF-114" value="" style="rounded=0;whiteSpace=wrap;html=1;" parent="1" vertex="1">
          <mxGeometry x="140" y="800" width="1340" height="700" as="geometry" />
        </mxCell>
        <mxCell id="47OpDiA0oA8PgdaGgZOF-115" value="" style="rounded=0;whiteSpace=wrap;html=1;" parent="1" vertex="1">
          <mxGeometry x="140" y="800" width="1340" height="60" as="geometry" />
        </mxCell>
        <mxCell id="47OpDiA0oA8PgdaGgZOF-116" value="" style="ellipse;whiteSpace=wrap;html=1;strokeWidth=2;fillWeight=2;hachureGap=8;fillColor=#990000;fillStyle=dots;sketch=1;" parent="1" vertex="1">
          <mxGeometry x="150" y="812.5" width="40" height="35" as="geometry" />
        </mxCell>
        <mxCell id="47OpDiA0oA8PgdaGgZOF-117" value="Game rooms" style="text;html=1;strokeColor=none;fillColor=none;align=center;verticalAlign=middle;whiteSpace=wrap;rounded=0;fontSize=24;" parent="1" vertex="1">
          <mxGeometry x="662.5" y="815" width="185" height="30" as="geometry" />
        </mxCell>
        <mxCell id="47OpDiA0oA8PgdaGgZOF-124" value="Data API" style="text;html=1;strokeColor=none;fillColor=none;align=center;verticalAlign=middle;whiteSpace=wrap;rounded=0;fontSize=24;" parent="1" vertex="1">
          <mxGeometry x="661" y="2105" width="140" height="30" as="geometry" />
        </mxCell>
        <mxCell id="47OpDiA0oA8PgdaGgZOF-125" value="Data Store" style="text;html=1;strokeColor=none;fillColor=none;align=center;verticalAlign=middle;whiteSpace=wrap;rounded=0;fontSize=24;" parent="1" vertex="1">
          <mxGeometry x="157.5" y="2105" width="140" height="30" as="geometry" />
        </mxCell>
        <mxCell id="47OpDiA0oA8PgdaGgZOF-126" value="Architecture" style="text;html=1;strokeColor=none;fillColor=none;align=center;verticalAlign=middle;whiteSpace=wrap;rounded=0;fontSize=24;" parent="1" vertex="1">
          <mxGeometry x="3240" y="2100" width="140" height="30" as="geometry" />
        </mxCell>
        <mxCell id="47OpDiA0oA8PgdaGgZOF-127" value="Settings" style="swimlane;fontStyle=0;childLayout=stackLayout;horizontal=1;startSize=26;fillColor=none;horizontalStack=0;resizeParent=1;resizeParentMax=0;resizeLast=0;collapsible=1;marginBottom=0;" parent="1" vertex="1">
          <mxGeometry x="173" y="2182" width="140" height="52" as="geometry" />
        </mxCell>
        <mxCell id="47OpDiA0oA8PgdaGgZOF-128" value="theme:   Theme" style="text;strokeColor=none;fillColor=none;align=left;verticalAlign=top;spacingLeft=4;spacingRight=4;overflow=hidden;rotatable=0;points=[[0,0.5],[1,0.5]];portConstraint=eastwest;" parent="47OpDiA0oA8PgdaGgZOF-127" vertex="1">
          <mxGeometry y="26" width="140" height="26" as="geometry" />
        </mxCell>
        <mxCell id="47OpDiA0oA8PgdaGgZOF-129" value="&lt;h1&gt;&lt;/h1&gt;enum&amp;nbsp;&lt;span style=&quot;background-color: initial;&quot;&gt;Theme {&lt;br&gt;&lt;/span&gt;&lt;span style=&quot;background-color: initial;&quot;&gt;&lt;span style=&quot;white-space: pre;&quot;&gt; &lt;/span&gt;Dark = &quot;Dark&quot;,&lt;br&gt;&lt;/span&gt;&lt;span style=&quot;background-color: initial;&quot;&gt;&lt;span style=&quot;white-space: pre;&quot;&gt; &lt;/span&gt;Light = &quot;Light&quot;&lt;br&gt;&lt;/span&gt;&lt;span style=&quot;background-color: initial;&quot;&gt;}&lt;/span&gt;&lt;span style=&quot;background-color: initial;&quot;&gt;&lt;br&gt;&lt;/span&gt;&lt;p&gt;&lt;span style=&quot;background-color: initial;&quot;&gt;enum FetchStatus {&lt;/span&gt;&lt;/p&gt;&lt;p&gt;&lt;span style=&quot;background-color: initial; white-space: pre;&quot;&gt; &lt;/span&gt;&lt;span style=&quot;background-color: initial;&quot;&gt;None = &quot;None&quot;,&lt;/span&gt;&lt;/p&gt;&lt;p&gt;&lt;span style=&quot;background-color: initial;&quot;&gt;&lt;span style=&quot;white-space: pre;&quot;&gt; &lt;/span&gt;Pending = &quot;Pending&quot;,&lt;/span&gt;&lt;/p&gt;&lt;p&gt;&lt;span style=&quot;background-color: initial;&quot;&gt;&lt;span style=&quot;white-space: pre;&quot;&gt; &lt;/span&gt;Success = &quot;Success&quot;,&lt;/span&gt;&lt;/p&gt;&lt;span style=&quot;white-space: pre;&quot;&gt; &lt;/span&gt;Error = &quot;Error&quot;&lt;br&gt;&lt;span style=&quot;background-color: initial;&quot;&gt;}&lt;/span&gt;" style="text;html=1;strokeColor=none;fillColor=none;spacing=5;spacingTop=-20;whiteSpace=wrap;overflow=hidden;rounded=0;" parent="1" vertex="1">
          <mxGeometry x="163.5" y="1640" width="162" height="400" as="geometry" />
        </mxCell>
        <mxCell id="47OpDiA0oA8PgdaGgZOF-130" value="User" style="swimlane;fontStyle=0;childLayout=stackLayout;horizontal=1;startSize=26;fillColor=none;horizontalStack=0;resizeParent=1;resizeParentMax=0;resizeLast=0;collapsible=1;marginBottom=0;" parent="1" vertex="1">
          <mxGeometry x="173.5" y="2256" width="140" height="80" as="geometry" />
        </mxCell>
        <mxCell id="47OpDiA0oA8PgdaGgZOF-131" value="name:   string&#xa;status: FetchStatus" style="text;strokeColor=none;fillColor=none;align=left;verticalAlign=top;spacingLeft=4;spacingRight=4;overflow=hidden;rotatable=0;points=[[0,0.5],[1,0.5]];portConstraint=eastwest;" parent="47OpDiA0oA8PgdaGgZOF-130" vertex="1">
          <mxGeometry y="26" width="140" height="54" as="geometry" />
        </mxCell>
        <mxCell id="47OpDiA0oA8PgdaGgZOF-132" value="Rooms" style="swimlane;fontStyle=0;childLayout=stackLayout;horizontal=1;startSize=26;fillColor=none;horizontalStack=0;resizeParent=1;resizeParentMax=0;resizeLast=0;collapsible=1;marginBottom=0;" parent="1" vertex="1">
          <mxGeometry x="173" y="2356" width="140" height="90" as="geometry" />
        </mxCell>
        <mxCell id="47OpDiA0oA8PgdaGgZOF-133" value="rooms:   Room []&#xa;status: FetchStatus" style="text;strokeColor=none;fillColor=none;align=left;verticalAlign=top;spacingLeft=4;spacingRight=4;overflow=hidden;rotatable=0;points=[[0,0.5],[1,0.5]];portConstraint=eastwest;" parent="47OpDiA0oA8PgdaGgZOF-132" vertex="1">
          <mxGeometry y="26" width="140" height="64" as="geometry" />
        </mxCell>
        <mxCell id="XbKmYp0QOx75mLHdsZkM-2" value="" style="rounded=1;whiteSpace=wrap;html=1;" parent="1" vertex="1">
          <mxGeometry x="2060" y="199" width="290" height="196" as="geometry" />
        </mxCell>
        <mxCell id="XbKmYp0QOx75mLHdsZkM-4" value="Room name" style="text;html=1;strokeColor=none;fillColor=none;align=center;verticalAlign=middle;whiteSpace=wrap;rounded=0;fontSize=20;" parent="1" vertex="1">
          <mxGeometry x="2070" y="214" width="150" height="30" as="geometry" />
        </mxCell>
        <mxCell id="XbKmYp0QOx75mLHdsZkM-5" value="Player1" style="text;html=1;strokeColor=none;fillColor=none;align=center;verticalAlign=middle;whiteSpace=wrap;rounded=0;fontSize=16;" parent="1" vertex="1">
          <mxGeometry x="2090" y="284" width="80" height="30" as="geometry" />
        </mxCell>
        <mxCell id="XbKmYp0QOx75mLHdsZkM-6" value="" style="rounded=1;whiteSpace=wrap;html=1;" parent="1" vertex="1">
          <mxGeometry x="2060" y="429" width="290" height="196" as="geometry" />
        </mxCell>
        <mxCell id="XbKmYp0QOx75mLHdsZkM-7" value="Room name" style="text;html=1;strokeColor=none;fillColor=none;align=center;verticalAlign=middle;whiteSpace=wrap;rounded=0;fontSize=20;" parent="1" vertex="1">
          <mxGeometry x="2070" y="444" width="150" height="30" as="geometry" />
        </mxCell>
        <mxCell id="XbKmYp0QOx75mLHdsZkM-10" value="Player2" style="text;html=1;strokeColor=none;fillColor=none;align=center;verticalAlign=middle;whiteSpace=wrap;rounded=0;fontSize=16;" parent="1" vertex="1">
          <mxGeometry x="2244.5" y="284" width="70" height="30" as="geometry" />
        </mxCell>
        <mxCell id="XbKmYp0QOx75mLHdsZkM-11" value="vs" style="text;html=1;strokeColor=none;fillColor=none;align=center;verticalAlign=middle;whiteSpace=wrap;rounded=0;fontSize=16;" parent="1" vertex="1">
          <mxGeometry x="2192.5" y="284" width="25" height="30" as="geometry" />
        </mxCell>
        <mxCell id="XbKmYp0QOx75mLHdsZkM-13" value="Player1" style="text;html=1;strokeColor=none;fillColor=none;align=center;verticalAlign=middle;whiteSpace=wrap;rounded=0;fontSize=16;" parent="1" vertex="1">
          <mxGeometry x="2095.5" y="512" width="80" height="30" as="geometry" />
        </mxCell>
        <mxCell id="XbKmYp0QOx75mLHdsZkM-15" value="vs" style="text;html=1;strokeColor=none;fillColor=none;align=center;verticalAlign=middle;whiteSpace=wrap;rounded=0;fontSize=16;" parent="1" vertex="1">
          <mxGeometry x="2198" y="512" width="25" height="30" as="geometry" />
        </mxCell>
        <mxCell id="XbKmYp0QOx75mLHdsZkM-16" value="Join the game" style="rounded=1;whiteSpace=wrap;html=1;fontSize=14;" parent="1" vertex="1">
          <mxGeometry x="2145" y="590" width="120" height="20" as="geometry" />
        </mxCell>
        <mxCell id="XbKmYp0QOx75mLHdsZkM-37" value="" style="rounded=1;whiteSpace=wrap;html=1;" parent="1" vertex="1">
          <mxGeometry x="200" y="1020" width="290" height="196" as="geometry" />
        </mxCell>
        <mxCell id="XbKmYp0QOx75mLHdsZkM-38" value="Room name" style="text;html=1;strokeColor=none;fillColor=none;align=center;verticalAlign=middle;whiteSpace=wrap;rounded=0;fontSize=20;" parent="1" vertex="1">
          <mxGeometry x="210" y="1035" width="150" height="30" as="geometry" />
        </mxCell>
        <mxCell id="XbKmYp0QOx75mLHdsZkM-39" value="Player1" style="text;html=1;strokeColor=none;fillColor=none;align=center;verticalAlign=middle;whiteSpace=wrap;rounded=0;fontSize=16;" parent="1" vertex="1">
          <mxGeometry x="230" y="1105" width="80" height="30" as="geometry" />
        </mxCell>
        <mxCell id="XbKmYp0QOx75mLHdsZkM-40" value="" style="rounded=1;whiteSpace=wrap;html=1;" parent="1" vertex="1">
          <mxGeometry x="200" y="1250" width="290" height="196" as="geometry" />
        </mxCell>
        <mxCell id="XbKmYp0QOx75mLHdsZkM-41" value="Room name" style="text;html=1;strokeColor=none;fillColor=none;align=center;verticalAlign=middle;whiteSpace=wrap;rounded=0;fontSize=20;" parent="1" vertex="1">
          <mxGeometry x="210" y="1265" width="150" height="30" as="geometry" />
        </mxCell>
        <mxCell id="XbKmYp0QOx75mLHdsZkM-42" value="Player2" style="text;html=1;strokeColor=none;fillColor=none;align=center;verticalAlign=middle;whiteSpace=wrap;rounded=0;fontSize=16;" parent="1" vertex="1">
          <mxGeometry x="384.5" y="1105" width="70" height="30" as="geometry" />
        </mxCell>
        <mxCell id="XbKmYp0QOx75mLHdsZkM-43" value="vs" style="text;html=1;strokeColor=none;fillColor=none;align=center;verticalAlign=middle;whiteSpace=wrap;rounded=0;fontSize=16;" parent="1" vertex="1">
          <mxGeometry x="332.5" y="1105" width="25" height="30" as="geometry" />
        </mxCell>
        <mxCell id="XbKmYp0QOx75mLHdsZkM-44" value="Player1" style="text;html=1;strokeColor=none;fillColor=none;align=center;verticalAlign=middle;whiteSpace=wrap;rounded=0;fontSize=16;" parent="1" vertex="1">
          <mxGeometry x="235.5" y="1333" width="80" height="30" as="geometry" />
        </mxCell>
        <mxCell id="XbKmYp0QOx75mLHdsZkM-45" value="vs" style="text;html=1;strokeColor=none;fillColor=none;align=center;verticalAlign=middle;whiteSpace=wrap;rounded=0;fontSize=16;" parent="1" vertex="1">
          <mxGeometry x="338" y="1333" width="25" height="30" as="geometry" />
        </mxCell>
        <mxCell id="XbKmYp0QOx75mLHdsZkM-46" value="Join the game" style="rounded=1;whiteSpace=wrap;html=1;fontSize=14;" parent="1" vertex="1">
          <mxGeometry x="285" y="1411" width="120" height="20" as="geometry" />
        </mxCell>
        <mxCell id="XbKmYp0QOx75mLHdsZkM-47" value="" style="rounded=1;whiteSpace=wrap;html=1;" parent="1" vertex="1">
          <mxGeometry x="510" y="1025" width="290" height="196" as="geometry" />
        </mxCell>
        <mxCell id="XbKmYp0QOx75mLHdsZkM-48" value="Room name" style="text;html=1;strokeColor=none;fillColor=none;align=center;verticalAlign=middle;whiteSpace=wrap;rounded=0;fontSize=20;" parent="1" vertex="1">
          <mxGeometry x="520" y="1040" width="150" height="30" as="geometry" />
        </mxCell>
        <mxCell id="XbKmYp0QOx75mLHdsZkM-49" value="Player1" style="text;html=1;strokeColor=none;fillColor=none;align=center;verticalAlign=middle;whiteSpace=wrap;rounded=0;fontSize=16;" parent="1" vertex="1">
          <mxGeometry x="540" y="1110" width="80" height="30" as="geometry" />
        </mxCell>
        <mxCell id="XbKmYp0QOx75mLHdsZkM-50" value="" style="rounded=1;whiteSpace=wrap;html=1;" parent="1" vertex="1">
          <mxGeometry x="510" y="1255" width="290" height="196" as="geometry" />
        </mxCell>
        <mxCell id="XbKmYp0QOx75mLHdsZkM-51" value="Room name" style="text;html=1;strokeColor=none;fillColor=none;align=center;verticalAlign=middle;whiteSpace=wrap;rounded=0;fontSize=20;" parent="1" vertex="1">
          <mxGeometry x="520" y="1270" width="150" height="30" as="geometry" />
        </mxCell>
        <mxCell id="XbKmYp0QOx75mLHdsZkM-52" value="Player2" style="text;html=1;strokeColor=none;fillColor=none;align=center;verticalAlign=middle;whiteSpace=wrap;rounded=0;fontSize=16;" parent="1" vertex="1">
          <mxGeometry x="694.5" y="1110" width="70" height="30" as="geometry" />
        </mxCell>
        <mxCell id="XbKmYp0QOx75mLHdsZkM-53" value="vs" style="text;html=1;strokeColor=none;fillColor=none;align=center;verticalAlign=middle;whiteSpace=wrap;rounded=0;fontSize=16;" parent="1" vertex="1">
          <mxGeometry x="642.5" y="1110" width="25" height="30" as="geometry" />
        </mxCell>
        <mxCell id="XbKmYp0QOx75mLHdsZkM-54" value="Player1" style="text;html=1;strokeColor=none;fillColor=none;align=center;verticalAlign=middle;whiteSpace=wrap;rounded=0;fontSize=16;" parent="1" vertex="1">
          <mxGeometry x="545.5" y="1338" width="80" height="30" as="geometry" />
        </mxCell>
        <mxCell id="XbKmYp0QOx75mLHdsZkM-55" value="vs" style="text;html=1;strokeColor=none;fillColor=none;align=center;verticalAlign=middle;whiteSpace=wrap;rounded=0;fontSize=16;" parent="1" vertex="1">
          <mxGeometry x="648" y="1338" width="25" height="30" as="geometry" />
        </mxCell>
        <mxCell id="XbKmYp0QOx75mLHdsZkM-56" value="Join the game" style="rounded=1;whiteSpace=wrap;html=1;fontSize=14;" parent="1" vertex="1">
          <mxGeometry x="595" y="1416" width="120" height="20" as="geometry" />
        </mxCell>
        <mxCell id="XbKmYp0QOx75mLHdsZkM-57" value="" style="rounded=1;whiteSpace=wrap;html=1;" parent="1" vertex="1">
          <mxGeometry x="822.5" y="1025" width="290" height="196" as="geometry" />
        </mxCell>
        <mxCell id="XbKmYp0QOx75mLHdsZkM-58" value="Room name" style="text;html=1;strokeColor=none;fillColor=none;align=center;verticalAlign=middle;whiteSpace=wrap;rounded=0;fontSize=20;" parent="1" vertex="1">
          <mxGeometry x="832.5" y="1040" width="150" height="30" as="geometry" />
        </mxCell>
        <mxCell id="XbKmYp0QOx75mLHdsZkM-59" value="Player1" style="text;html=1;strokeColor=none;fillColor=none;align=center;verticalAlign=middle;whiteSpace=wrap;rounded=0;fontSize=16;" parent="1" vertex="1">
          <mxGeometry x="852.5" y="1110" width="80" height="30" as="geometry" />
        </mxCell>
        <mxCell id="XbKmYp0QOx75mLHdsZkM-60" value="" style="rounded=1;whiteSpace=wrap;html=1;" parent="1" vertex="1">
          <mxGeometry x="822.5" y="1255" width="290" height="196" as="geometry" />
        </mxCell>
        <mxCell id="XbKmYp0QOx75mLHdsZkM-61" value="Room name" style="text;html=1;strokeColor=none;fillColor=none;align=center;verticalAlign=middle;whiteSpace=wrap;rounded=0;fontSize=20;" parent="1" vertex="1">
          <mxGeometry x="832.5" y="1270" width="150" height="30" as="geometry" />
        </mxCell>
        <mxCell id="XbKmYp0QOx75mLHdsZkM-62" value="Player2" style="text;html=1;strokeColor=none;fillColor=none;align=center;verticalAlign=middle;whiteSpace=wrap;rounded=0;fontSize=16;" parent="1" vertex="1">
          <mxGeometry x="1007" y="1110" width="70" height="30" as="geometry" />
        </mxCell>
        <mxCell id="XbKmYp0QOx75mLHdsZkM-63" value="vs" style="text;html=1;strokeColor=none;fillColor=none;align=center;verticalAlign=middle;whiteSpace=wrap;rounded=0;fontSize=16;" parent="1" vertex="1">
          <mxGeometry x="955" y="1110" width="25" height="30" as="geometry" />
        </mxCell>
        <mxCell id="XbKmYp0QOx75mLHdsZkM-64" value="Player1" style="text;html=1;strokeColor=none;fillColor=none;align=center;verticalAlign=middle;whiteSpace=wrap;rounded=0;fontSize=16;" parent="1" vertex="1">
          <mxGeometry x="858" y="1338" width="80" height="30" as="geometry" />
        </mxCell>
        <mxCell id="XbKmYp0QOx75mLHdsZkM-65" value="vs" style="text;html=1;strokeColor=none;fillColor=none;align=center;verticalAlign=middle;whiteSpace=wrap;rounded=0;fontSize=16;" parent="1" vertex="1">
          <mxGeometry x="960.5" y="1338" width="25" height="30" as="geometry" />
        </mxCell>
        <mxCell id="XbKmYp0QOx75mLHdsZkM-66" value="Join the game" style="rounded=1;whiteSpace=wrap;html=1;fontSize=14;" parent="1" vertex="1">
          <mxGeometry x="907.5" y="1416" width="120" height="20" as="geometry" />
        </mxCell>
        <mxCell id="XbKmYp0QOx75mLHdsZkM-67" value="" style="rounded=1;whiteSpace=wrap;html=1;" parent="1" vertex="1">
          <mxGeometry x="1137.5" y="1025" width="290" height="196" as="geometry" />
        </mxCell>
        <mxCell id="XbKmYp0QOx75mLHdsZkM-68" value="Room name" style="text;html=1;strokeColor=none;fillColor=none;align=center;verticalAlign=middle;whiteSpace=wrap;rounded=0;fontSize=20;" parent="1" vertex="1">
          <mxGeometry x="1147.5" y="1040" width="150" height="30" as="geometry" />
        </mxCell>
        <mxCell id="XbKmYp0QOx75mLHdsZkM-69" value="Player1" style="text;html=1;strokeColor=none;fillColor=none;align=center;verticalAlign=middle;whiteSpace=wrap;rounded=0;fontSize=16;" parent="1" vertex="1">
          <mxGeometry x="1167.5" y="1110" width="80" height="30" as="geometry" />
        </mxCell>
        <mxCell id="XbKmYp0QOx75mLHdsZkM-70" value="" style="rounded=1;whiteSpace=wrap;html=1;" parent="1" vertex="1">
          <mxGeometry x="1137.5" y="1255" width="290" height="196" as="geometry" />
        </mxCell>
        <mxCell id="XbKmYp0QOx75mLHdsZkM-71" value="Room name" style="text;html=1;strokeColor=none;fillColor=none;align=center;verticalAlign=middle;whiteSpace=wrap;rounded=0;fontSize=20;" parent="1" vertex="1">
          <mxGeometry x="1147.5" y="1270" width="150" height="30" as="geometry" />
        </mxCell>
        <mxCell id="XbKmYp0QOx75mLHdsZkM-72" value="Player2" style="text;html=1;strokeColor=none;fillColor=none;align=center;verticalAlign=middle;whiteSpace=wrap;rounded=0;fontSize=16;" parent="1" vertex="1">
          <mxGeometry x="1322" y="1110" width="70" height="30" as="geometry" />
        </mxCell>
        <mxCell id="XbKmYp0QOx75mLHdsZkM-73" value="vs" style="text;html=1;strokeColor=none;fillColor=none;align=center;verticalAlign=middle;whiteSpace=wrap;rounded=0;fontSize=16;" parent="1" vertex="1">
          <mxGeometry x="1270" y="1110" width="25" height="30" as="geometry" />
        </mxCell>
        <mxCell id="XbKmYp0QOx75mLHdsZkM-74" value="Player1" style="text;html=1;strokeColor=none;fillColor=none;align=center;verticalAlign=middle;whiteSpace=wrap;rounded=0;fontSize=16;" parent="1" vertex="1">
          <mxGeometry x="1173" y="1338" width="80" height="30" as="geometry" />
        </mxCell>
        <mxCell id="XbKmYp0QOx75mLHdsZkM-75" value="vs" style="text;html=1;strokeColor=none;fillColor=none;align=center;verticalAlign=middle;whiteSpace=wrap;rounded=0;fontSize=16;" parent="1" vertex="1">
          <mxGeometry x="1275.5" y="1338" width="25" height="30" as="geometry" />
        </mxCell>
        <mxCell id="XbKmYp0QOx75mLHdsZkM-76" value="Join the game" style="rounded=1;whiteSpace=wrap;html=1;fontSize=14;" parent="1" vertex="1">
          <mxGeometry x="1222.5" y="1416" width="120" height="20" as="geometry" />
        </mxCell>
        <mxCell id="XbKmYp0QOx75mLHdsZkM-77" value="Please type room name or player name" style="rounded=0;whiteSpace=wrap;html=1;fontSize=18;" parent="1" vertex="1">
          <mxGeometry x="400" y="900" width="510" height="40" as="geometry" />
        </mxCell>
        <mxCell id="XbKmYp0QOx75mLHdsZkM-78" value="Filter" style="rounded=1;whiteSpace=wrap;html=1;fontSize=18;" parent="1" vertex="1">
          <mxGeometry x="938" y="900" width="142" height="40" as="geometry" />
        </mxCell>
        <mxCell id="XbKmYp0QOx75mLHdsZkM-81" value="Only open rooms" style="text;html=1;strokeColor=none;fillColor=none;align=center;verticalAlign=middle;whiteSpace=wrap;rounded=0;fontSize=18;" parent="1" vertex="1">
          <mxGeometry x="420" y="945" width="152" height="20" as="geometry" />
        </mxCell>
        <mxCell id="XbKmYp0QOx75mLHdsZkM-82" value="" style="whiteSpace=wrap;html=1;aspect=fixed;fontSize=18;" parent="1" vertex="1">
          <mxGeometry x="410" y="950" width="10" height="10" as="geometry" />
        </mxCell>
        <mxCell id="XbKmYp0QOx75mLHdsZkM-83" value="Create a room" style="rounded=1;whiteSpace=wrap;html=1;fontSize=18;" parent="1" vertex="1">
          <mxGeometry x="1240" y="902.5" width="177.5" height="35" as="geometry" />
        </mxCell>
        <mxCell id="XbKmYp0QOx75mLHdsZkM-90" value="Login" style="text;html=1;strokeColor=none;fillColor=none;align=center;verticalAlign=middle;whiteSpace=wrap;rounded=0;fontSize=18;" parent="1" vertex="1">
          <mxGeometry x="1392" y="815" width="80" height="30" as="geometry" />
        </mxCell>
        <mxCell id="XbKmYp0QOx75mLHdsZkM-91" value="" style="shape=umlActor;verticalLabelPosition=bottom;verticalAlign=top;html=1;fontSize=18;" parent="1" vertex="1">
          <mxGeometry x="5277" y="812.5" width="20" height="35" as="geometry" />
        </mxCell>
        <mxCell id="XbKmYp0QOx75mLHdsZkM-92" value="User name" style="text;html=1;strokeColor=none;fillColor=none;align=center;verticalAlign=middle;whiteSpace=wrap;rounded=0;fontSize=18;" parent="1" vertex="1">
          <mxGeometry x="5167" y="815" width="100" height="30" as="geometry" />
        </mxCell>
        <mxCell id="XbKmYp0QOx75mLHdsZkM-93" value="" style="shape=umlActor;verticalLabelPosition=bottom;verticalAlign=top;html=1;fontSize=18;" parent="1" vertex="1">
          <mxGeometry x="6560" y="812.5" width="20" height="35" as="geometry" />
        </mxCell>
        <mxCell id="XbKmYp0QOx75mLHdsZkM-94" value="User name" style="text;html=1;strokeColor=none;fillColor=none;align=center;verticalAlign=middle;whiteSpace=wrap;rounded=0;fontSize=18;" parent="1" vertex="1">
          <mxGeometry x="6450" y="815" width="100" height="30" as="geometry" />
        </mxCell>
        <mxCell id="XbKmYp0QOx75mLHdsZkM-95" value="" style="rounded=0;whiteSpace=wrap;html=1;" parent="1" vertex="1">
          <mxGeometry x="2800" y="800" width="1240" height="700" as="geometry" />
        </mxCell>
        <mxCell id="XbKmYp0QOx75mLHdsZkM-96" value="" style="rounded=0;whiteSpace=wrap;html=1;" parent="1" vertex="1">
          <mxGeometry x="2800" y="800" width="1240" height="60" as="geometry" />
        </mxCell>
        <mxCell id="XbKmYp0QOx75mLHdsZkM-97" value="" style="ellipse;whiteSpace=wrap;html=1;strokeWidth=2;fillWeight=2;hachureGap=8;fillColor=#990000;fillStyle=dots;sketch=1;" parent="1" vertex="1">
          <mxGeometry x="2810" y="812.5" width="40" height="35" as="geometry" />
        </mxCell>
        <mxCell id="XbKmYp0QOx75mLHdsZkM-98" value="Create room modal" style="text;html=1;strokeColor=none;fillColor=none;align=center;verticalAlign=middle;whiteSpace=wrap;rounded=0;fontSize=24;" parent="1" vertex="1">
          <mxGeometry x="3297.5" y="817.5" width="235" height="30" as="geometry" />
        </mxCell>
        <mxCell id="XbKmYp0QOx75mLHdsZkM-99" value="" style="rounded=0;whiteSpace=wrap;html=1;" parent="1" vertex="1">
          <mxGeometry x="3175" y="930" width="480" height="340" as="geometry" />
        </mxCell>
        <mxCell id="XbKmYp0QOx75mLHdsZkM-100" value="Please enter room name and select game type" style="text;html=1;strokeColor=none;fillColor=none;align=center;verticalAlign=middle;whiteSpace=wrap;rounded=0;fontSize=16;" parent="1" vertex="1">
          <mxGeometry x="3315" y="975" width="200" height="45" as="geometry" />
        </mxCell>
        <mxCell id="XbKmYp0QOx75mLHdsZkM-101" value="Room name" style="rounded=0;whiteSpace=wrap;html=1;fontSize=16;" parent="1" vertex="1">
          <mxGeometry x="3292.5" y="1045" width="245" height="25" as="geometry" />
        </mxCell>
        <mxCell id="XbKmYp0QOx75mLHdsZkM-102" value="Create" style="rounded=1;whiteSpace=wrap;html=1;fontSize=16;" parent="1" vertex="1">
          <mxGeometry x="3355" y="1180" width="120" height="20" as="geometry" />
        </mxCell>
        <mxCell id="XbKmYp0QOx75mLHdsZkM-103" value="Game type: vs person, vs pc" style="rounded=0;whiteSpace=wrap;html=1;fontSize=16;" parent="1" vertex="1">
          <mxGeometry x="3292.5" y="1096.5" width="245" height="25" as="geometry" />
        </mxCell>
        <mxCell id="XbKmYp0QOx75mLHdsZkM-106" value="Please login to join the game" style="rounded=1;whiteSpace=wrap;html=1;fontSize=18;" parent="1" vertex="1">
          <mxGeometry x="1190" y="1370" width="273" height="106" as="geometry" />
        </mxCell>
        <mxCell id="XbKmYp0QOx75mLHdsZkM-107" value="Please login to create a room" style="rounded=1;whiteSpace=wrap;html=1;fontSize=18;" parent="1" vertex="1">
          <mxGeometry x="1192.25" y="1240" width="273" height="106" as="geometry" />
        </mxCell>
        <mxCell id="XbKmYp0QOx75mLHdsZkM-108" value="" style="rounded=0;whiteSpace=wrap;html=1;" parent="1" vertex="1">
          <mxGeometry x="2400" y="199" width="480" height="340" as="geometry" />
        </mxCell>
        <mxCell id="XbKmYp0QOx75mLHdsZkM-109" value="Please enter room name and select game type" style="text;html=1;strokeColor=none;fillColor=none;align=center;verticalAlign=middle;whiteSpace=wrap;rounded=0;fontSize=16;" parent="1" vertex="1">
          <mxGeometry x="2540" y="244" width="200" height="45" as="geometry" />
        </mxCell>
        <mxCell id="XbKmYp0QOx75mLHdsZkM-110" value="Room name" style="rounded=0;whiteSpace=wrap;html=1;fontSize=16;" parent="1" vertex="1">
          <mxGeometry x="2517.5" y="314" width="245" height="25" as="geometry" />
        </mxCell>
        <mxCell id="XbKmYp0QOx75mLHdsZkM-111" value="Create" style="rounded=1;whiteSpace=wrap;html=1;fontSize=16;" parent="1" vertex="1">
          <mxGeometry x="2580" y="449" width="120" height="20" as="geometry" />
        </mxCell>
        <mxCell id="XbKmYp0QOx75mLHdsZkM-112" value="Game type: vs person, vs pc" style="rounded=0;whiteSpace=wrap;html=1;fontSize=16;" parent="1" vertex="1">
          <mxGeometry x="2517.5" y="365.5" width="245" height="25" as="geometry" />
        </mxCell>
        <mxCell id="XbKmYp0QOx75mLHdsZkM-113" value="" style="rounded=0;whiteSpace=wrap;html=1;" parent="1" vertex="1">
          <mxGeometry x="2920" y="199" width="480" height="260" as="geometry" />
        </mxCell>
        <mxCell id="XbKmYp0QOx75mLHdsZkM-114" value="Please enter your name" style="text;html=1;strokeColor=none;fillColor=none;align=center;verticalAlign=middle;whiteSpace=wrap;rounded=0;fontSize=16;" parent="1" vertex="1">
          <mxGeometry x="3060" y="244" width="200" height="30" as="geometry" />
        </mxCell>
        <mxCell id="XbKmYp0QOx75mLHdsZkM-115" value="Placeholder" style="rounded=0;whiteSpace=wrap;html=1;fontSize=16;" parent="1" vertex="1">
          <mxGeometry x="3037.5" y="314" width="245" height="25" as="geometry" />
        </mxCell>
        <mxCell id="XbKmYp0QOx75mLHdsZkM-116" value="Register" style="rounded=1;whiteSpace=wrap;html=1;fontSize=16;" parent="1" vertex="1">
          <mxGeometry x="3100" y="379" width="120" height="20" as="geometry" />
        </mxCell>
        <mxCell id="XbKmYp0QOx75mLHdsZkM-117" value="Create room form" style="text;html=1;strokeColor=none;fillColor=none;align=center;verticalAlign=middle;whiteSpace=wrap;rounded=0;fontSize=16;" parent="1" vertex="1">
          <mxGeometry x="2400" y="160" width="150" height="30" as="geometry" />
        </mxCell>
        <mxCell id="XbKmYp0QOx75mLHdsZkM-118" value="Login form" style="text;html=1;strokeColor=none;fillColor=none;align=center;verticalAlign=middle;whiteSpace=wrap;rounded=0;fontSize=16;" parent="1" vertex="1">
          <mxGeometry x="2920" y="160" width="90" height="30" as="geometry" />
        </mxCell>
        <mxCell id="XbKmYp0QOx75mLHdsZkM-119" value="Room card" style="text;html=1;strokeColor=none;fillColor=none;align=center;verticalAlign=middle;whiteSpace=wrap;rounded=0;fontSize=16;" parent="1" vertex="1">
          <mxGeometry x="2060.5" y="160" width="150" height="30" as="geometry" />
        </mxCell>
        <mxCell id="XbKmYp0QOx75mLHdsZkM-121" value="" style="endArrow=none;html=1;rounded=0;fontSize=18;" parent="1" edge="1">
          <mxGeometry width="50" height="50" relative="1" as="geometry">
            <mxPoint x="882.5" y="930" as="sourcePoint" />
            <mxPoint x="902.5" y="910" as="targetPoint" />
          </mxGeometry>
        </mxCell>
        <mxCell id="XbKmYp0QOx75mLHdsZkM-122" value="" style="endArrow=none;html=1;rounded=0;fontSize=18;" parent="1" edge="1">
          <mxGeometry width="50" height="50" relative="1" as="geometry">
            <mxPoint x="902.5" y="930" as="sourcePoint" />
            <mxPoint x="882.5" y="910" as="targetPoint" />
            <Array as="points">
              <mxPoint x="882.5" y="910" />
            </Array>
          </mxGeometry>
        </mxCell>
        <mxCell id="XbKmYp0QOx75mLHdsZkM-124" value="Front-end" style="text;html=1;strokeColor=none;fillColor=none;align=center;verticalAlign=middle;whiteSpace=wrap;rounded=0;fontSize=24;" parent="1" vertex="1">
          <mxGeometry x="125" y="-30" width="140" height="30" as="geometry" />
        </mxCell>
        <mxCell id="XbKmYp0QOx75mLHdsZkM-125" value="" style="verticalLabelPosition=bottom;verticalAlign=top;html=1;shape=mxgraph.basic.moon;fontSize=34;" parent="1" vertex="1">
          <mxGeometry x="1328.5" y="815" width="22" height="30" as="geometry" />
        </mxCell>
        <mxCell id="XbKmYp0QOx75mLHdsZkM-126" value="" style="verticalLabelPosition=bottom;verticalAlign=top;html=1;shape=mxgraph.basic.sun;fontSize=34;" parent="1" vertex="1">
          <mxGeometry x="1362" y="810" width="38" height="40" as="geometry" />
        </mxCell>
        <mxCell id="XbKmYp0QOx75mLHdsZkM-130" value="" style="verticalLabelPosition=bottom;verticalAlign=top;html=1;shape=mxgraph.basic.moon;fontSize=34;" parent="1" vertex="1">
          <mxGeometry x="5095.5" y="815" width="22" height="30" as="geometry" />
        </mxCell>
        <mxCell id="XbKmYp0QOx75mLHdsZkM-131" value="" style="verticalLabelPosition=bottom;verticalAlign=top;html=1;shape=mxgraph.basic.sun;fontSize=34;" parent="1" vertex="1">
          <mxGeometry x="5129" y="810" width="38" height="40" as="geometry" />
        </mxCell>
        <mxCell id="XbKmYp0QOx75mLHdsZkM-134" value="" style="verticalLabelPosition=bottom;verticalAlign=top;html=1;shape=mxgraph.basic.moon;fontSize=34;" parent="1" vertex="1">
          <mxGeometry x="6378.5" y="815" width="22" height="30" as="geometry" />
        </mxCell>
        <mxCell id="XbKmYp0QOx75mLHdsZkM-135" value="" style="verticalLabelPosition=bottom;verticalAlign=top;html=1;shape=mxgraph.basic.sun;fontSize=34;" parent="1" vertex="1">
          <mxGeometry x="6412" y="810" width="38" height="40" as="geometry" />
        </mxCell>
        <mxCell id="XbKmYp0QOx75mLHdsZkM-137" value="&lt;br&gt;User&lt;br&gt;get: /me&lt;br&gt;post: /login&lt;br&gt;post: /logout&lt;br&gt;&lt;br&gt;Room&lt;br&gt;get: /rooms?filter=&quot;text&quot;&amp;amp;only_active=&quot;bool&quot;&lt;br&gt;get: /room/id&lt;br&gt;post: /room/create&lt;br&gt;post: /room/update/id (join, leave)&lt;br&gt;&lt;br&gt;Game&lt;br&gt;get: /choise&lt;br&gt;get: /choises (max-age: 24h)&lt;br&gt;post: /play {round_id: string, action_type: &quot;choice&quot;}&lt;br&gt;&lt;br&gt;Round&lt;br&gt;post: /start&lt;br&gt;post: /stop&lt;br&gt;&lt;br&gt;Events&lt;br&gt;get: /events&lt;br&gt;post: /events&lt;br&gt;&lt;br&gt;&lt;br&gt;" style="text;html=1;strokeColor=none;fillColor=none;spacing=5;spacingTop=-20;whiteSpace=wrap;overflow=hidden;rounded=0;fontSize=21;verticalAlign=top;" parent="1" vertex="1">
          <mxGeometry x="463" y="2152" width="480" height="618" as="geometry" />
        </mxCell>
        <mxCell id="XbKmYp0QOx75mLHdsZkM-139" value="Game" style="swimlane;fontStyle=0;childLayout=stackLayout;horizontal=1;startSize=26;fillColor=none;horizontalStack=0;resizeParent=1;resizeParentMax=0;resizeLast=0;collapsible=1;marginBottom=0;" parent="1" vertex="1">
          <mxGeometry x="174" y="2466" width="140" height="70" as="geometry" />
        </mxCell>
        <mxCell id="XbKmYp0QOx75mLHdsZkM-140" value="players: User[];&#xa;" style="text;strokeColor=none;fillColor=none;align=left;verticalAlign=top;spacingLeft=4;spacingRight=4;overflow=hidden;rotatable=0;points=[[0,0.5],[1,0.5]];portConstraint=eastwest;" parent="XbKmYp0QOx75mLHdsZkM-139" vertex="1">
          <mxGeometry y="26" width="140" height="44" as="geometry" />
        </mxCell>
        <mxCell id="XbKmYp0QOx75mLHdsZkM-141" value="" style="shape=cylinder3;whiteSpace=wrap;html=1;boundedLbl=1;backgroundOutline=1;size=15;fontSize=20;" parent="1" vertex="1">
          <mxGeometry x="1198" y="2090" width="55" height="62" as="geometry" />
        </mxCell>
        <mxCell id="XbKmYp0QOx75mLHdsZkM-144" value="Users" style="swimlane;fontStyle=0;childLayout=stackLayout;horizontal=1;startSize=26;fillColor=none;horizontalStack=0;resizeParent=1;resizeParentMax=0;resizeLast=0;collapsible=1;marginBottom=0;" parent="1" vertex="1">
          <mxGeometry x="1023" y="2182" width="140" height="100" as="geometry" />
        </mxCell>
        <mxCell id="XbKmYp0QOx75mLHdsZkM-145" value="id: string;&#xa;name:   string;&#xa;createdAt: string;&#xa;updatedAt: string;" style="text;strokeColor=none;fillColor=none;align=left;verticalAlign=top;spacingLeft=4;spacingRight=4;overflow=hidden;rotatable=0;points=[[0,0.5],[1,0.5]];portConstraint=eastwest;" parent="XbKmYp0QOx75mLHdsZkM-144" vertex="1">
          <mxGeometry y="26" width="140" height="74" as="geometry" />
        </mxCell>
        <mxCell id="XbKmYp0QOx75mLHdsZkM-146" value="Data Models" style="text;html=1;strokeColor=none;fillColor=none;align=center;verticalAlign=middle;whiteSpace=wrap;rounded=0;fontSize=24;" parent="1" vertex="1">
          <mxGeometry x="1023" y="2106" width="150" height="30" as="geometry" />
        </mxCell>
        <mxCell id="XbKmYp0QOx75mLHdsZkM-147" value="Rooms" style="swimlane;fontStyle=0;childLayout=stackLayout;horizontal=1;startSize=26;fillColor=none;horizontalStack=0;resizeParent=1;resizeParentMax=0;resizeLast=0;collapsible=1;marginBottom=0;" parent="1" vertex="1">
          <mxGeometry x="1023" y="2320" width="140" height="140" as="geometry" />
        </mxCell>
        <mxCell id="XbKmYp0QOx75mLHdsZkM-148" value="id: string;&#xa;type: RoomType;&#xa;name:  string;&#xa;host: user_id;&#xa;guest: user_id;&#xa;status: RoomStatus;&#xa;active: bool;" style="text;strokeColor=none;fillColor=none;align=left;verticalAlign=top;spacingLeft=4;spacingRight=4;overflow=hidden;rotatable=0;points=[[0,0.5],[1,0.5]];portConstraint=eastwest;" parent="XbKmYp0QOx75mLHdsZkM-147" vertex="1">
          <mxGeometry y="26" width="140" height="114" as="geometry" />
        </mxCell>
        <mxCell id="XbKmYp0QOx75mLHdsZkM-149" value="&lt;h1&gt;&lt;/h1&gt;enum RoomStatus {&lt;br&gt;&lt;span style=&quot;&quot;&gt; &lt;/span&gt;&lt;span style=&quot;&quot;&gt; &lt;/span&gt;&lt;span style=&quot;&quot;&gt; &lt;/span&gt;&lt;blockquote style=&quot;margin: 0 0 0 40px; border: none; padding: 0px;&quot;&gt;Open = &quot;Open&quot;,&lt;br&gt;Closed = &quot;Closed&quot;&lt;/blockquote&gt;}&lt;br&gt;" style="text;html=1;strokeColor=none;fillColor=none;spacing=5;spacingTop=-20;whiteSpace=wrap;overflow=hidden;rounded=0;verticalAlign=top;" parent="1" vertex="1">
          <mxGeometry x="359" y="1640" width="161" height="70" as="geometry" />
        </mxCell>
        <mxCell id="XbKmYp0QOx75mLHdsZkM-154" value="Rounds" style="swimlane;fontStyle=0;childLayout=stackLayout;horizontal=1;startSize=26;fillColor=none;horizontalStack=0;resizeParent=1;resizeParentMax=0;resizeLast=0;collapsible=1;marginBottom=0;" parent="1" vertex="1">
          <mxGeometry x="1023" y="2490" width="140" height="120" as="geometry" />
        </mxCell>
        <mxCell id="XbKmYp0QOx75mLHdsZkM-155" value="id: string;&#xa;room: room_id;&#xa;host_choice: Choice;&#xa;guest_choice: Choice; &#xa;winner: PlayerRole;" style="text;strokeColor=none;fillColor=none;align=left;verticalAlign=top;spacingLeft=4;spacingRight=4;overflow=hidden;rotatable=0;points=[[0,0.5],[1,0.5]];portConstraint=eastwest;" parent="XbKmYp0QOx75mLHdsZkM-154" vertex="1">
          <mxGeometry y="26" width="140" height="94" as="geometry" />
        </mxCell>
        <mxCell id="XbKmYp0QOx75mLHdsZkM-156" value="The room was closed by the host" style="rounded=1;whiteSpace=wrap;html=1;fontSize=18;" parent="1" vertex="1">
          <mxGeometry x="4750" y="1368" width="273" height="106" as="geometry" />
        </mxCell>
        <mxCell id="JlawNOX2Kc9MKQTHXixH-1" value="&lt;h1 style=&quot;border-color: rgb(0, 0, 0); color: rgb(240, 240, 240); font-family: Helvetica; font-style: normal; font-variant-ligatures: normal; font-variant-caps: normal; letter-spacing: normal; orphans: 2; text-align: left; text-indent: 0px; text-transform: none; widows: 2; word-spacing: 0px; -webkit-text-stroke-width: 0px; background-color: rgb(42, 37, 47); text-decoration-thickness: initial; text-decoration-style: initial; text-decoration-color: initial;&quot;&gt;Enums&lt;/h1&gt;" style="text;whiteSpace=wrap;html=1;" parent="1" vertex="1">
          <mxGeometry x="160" y="1560" width="110" height="80" as="geometry" />
        </mxCell>
        <mxCell id="JlawNOX2Kc9MKQTHXixH-2" value="&lt;span style=&quot;font-size: 12px;&quot;&gt;ChoiseLooseMap {&lt;br style=&quot;font-size: 12px;&quot;&gt;&lt;span style=&quot;white-space: pre; font-size: 12px;&quot;&gt; &lt;/span&gt;1: [2, 4],&lt;br style=&quot;font-size: 12px;&quot;&gt;&lt;span style=&quot;white-space: pre; font-size: 12px;&quot;&gt; &lt;/span&gt;2: [3, 5],&lt;br style=&quot;font-size: 12px;&quot;&gt;&lt;span style=&quot;white-space: pre; font-size: 12px;&quot;&gt; &lt;/span&gt;3: [4, 1],&lt;br style=&quot;font-size: 12px;&quot;&gt;&lt;span style=&quot;white-space: pre; font-size: 12px;&quot;&gt; &lt;/span&gt;4: [5, 2]&lt;span style=&quot;white-space: pre; font-size: 12px;&quot;&gt; &lt;/span&gt;&lt;br style=&quot;font-size: 12px;&quot;&gt;&lt;span style=&quot;white-space: pre; font-size: 12px;&quot;&gt; &lt;/span&gt;5: [1, 4]&lt;br style=&quot;font-size: 12px;&quot;&gt;}&lt;/span&gt;" style="text;whiteSpace=wrap;html=1;fontSize=12;verticalAlign=top;horizontal=1;" parent="1" vertex="1">
          <mxGeometry x="520.5" y="1640" width="120" height="120" as="geometry" />
        </mxCell>
        <mxCell id="JlawNOX2Kc9MKQTHXixH-7" value="&lt;h1&gt;&lt;/h1&gt;enum PlayerRole {&lt;br&gt;&lt;span style=&quot;&quot;&gt; &lt;/span&gt;&lt;span style=&quot;&quot;&gt; &lt;/span&gt;&lt;blockquote style=&quot;margin: 0 0 0 40px; border: none; padding: 0px;&quot;&gt;Host = &quot;Host&quot;,&lt;br&gt;Guest = &quot;Guest&quot;&lt;/blockquote&gt;}" style="text;html=1;strokeColor=none;fillColor=none;spacing=5;spacingTop=-20;whiteSpace=wrap;overflow=hidden;rounded=0;verticalAlign=top;" parent="1" vertex="1">
          <mxGeometry x="357.5" y="1920" width="161" height="80" as="geometry" />
        </mxCell>
        <mxCell id="JlawNOX2Kc9MKQTHXixH-8" value="&lt;h1&gt;&lt;/h1&gt;enum RoomType {&lt;br&gt;&lt;span style=&quot;&quot;&gt; &lt;/span&gt;&lt;span style=&quot;&quot;&gt; &lt;/span&gt;&lt;span style=&quot;&quot;&gt; &lt;/span&gt;&lt;blockquote style=&quot;margin: 0 0 0 40px; border: none; padding: 0px;&quot;&gt;PVP,&lt;br&gt;PVC&lt;/blockquote&gt;}" style="text;html=1;strokeColor=none;fillColor=none;spacing=5;spacingTop=-20;whiteSpace=wrap;overflow=hidden;rounded=0;verticalAlign=top;" parent="1" vertex="1">
          <mxGeometry x="357.5" y="1718" width="161" height="70" as="geometry" />
        </mxCell>
        <mxCell id="JlawNOX2Kc9MKQTHXixH-9" value="&lt;h1&gt;&lt;/h1&gt;enum Choices {&lt;br&gt;&lt;span style=&quot;&quot;&gt; &lt;/span&gt;&lt;span style=&quot;&quot;&gt; &lt;/span&gt;&lt;span style=&quot;&quot;&gt; &lt;/span&gt;&lt;blockquote style=&quot;margin: 0 0 0 40px; border: none; padding: 0px;&quot;&gt;rock = 1,&lt;br&gt;paper = 2,&lt;br&gt;scissors = 3,&lt;br&gt;spock = 4,&lt;br&gt;lizard&amp;nbsp;= 5&lt;/blockquote&gt;&lt;span style=&quot;&quot;&gt;&lt;/span&gt;}" style="text;html=1;strokeColor=none;fillColor=none;spacing=5;spacingTop=-20;whiteSpace=wrap;overflow=hidden;rounded=0;verticalAlign=top;" parent="1" vertex="1">
          <mxGeometry x="359.5" y="1800" width="161" height="110" as="geometry" />
        </mxCell>
        <mxCell id="JlawNOX2Kc9MKQTHXixH-13" value="Sessions" style="swimlane;fontStyle=0;childLayout=stackLayout;horizontal=1;startSize=26;fillColor=none;horizontalStack=0;resizeParent=1;resizeParentMax=0;resizeLast=0;collapsible=1;marginBottom=0;" parent="1" vertex="1">
          <mxGeometry x="1198" y="2182" width="140" height="120" as="geometry" />
        </mxCell>
        <mxCell id="JlawNOX2Kc9MKQTHXixH-14" value="id: string;&#xa;uuid: string;&#xa;user_id:   string;&#xa;createdAt: string;&#xa;updatedAt: string;" style="text;strokeColor=none;fillColor=none;align=left;verticalAlign=top;spacingLeft=4;spacingRight=4;overflow=hidden;rotatable=0;points=[[0,0.5],[1,0.5]];portConstraint=eastwest;" parent="JlawNOX2Kc9MKQTHXixH-13" vertex="1">
          <mxGeometry y="26" width="140" height="94" as="geometry" />
        </mxCell>
      </root>
    </mxGraphModel>
  </diagram>
</mxfile>
